<svg xmlns="http://www.w3.org/2000/svg" xmlns:xlink="http://www.w3.org/1999/xlink"><defs><linearGradient id="paint0_linear" x1="609.931" y1="-40.631" x2="609.931" y2="297.04" gradientUnits="userSpaceOnUse"><stop stop-color="#F4A984"/><stop offset="1" stop-color="#EE4D47"/></linearGradient><linearGradient id="paint1_linear" x1="505.868" y1="-288.354" x2="505.868" y2="296.573" gradientUnits="userSpaceOnUse"><stop stop-color="#F4A984"/><stop offset=".561" stop-color="#EE4D47"/></linearGradient></defs><symbol id="arrow"><path d="M23.889 12.355L29.5 6.177l-1-1.1v-.073h-.066L23.888 0l-1.48 1.346 3.323 3.658H0v2h26.046l-3.637 4.005 1.48 1.346z" fill="#fff"/></symbol><symbol id="fb"><path d="M6.37 20.488V10.243h2.834l.376-3.53H6.37l.005-1.768c0-.92.088-1.414 1.413-1.414H9.56V0H6.725C3.321 0 2.122 1.713 2.122 4.593v2.12H0v3.53h2.122v10.245H6.37z" fill="#fff"/></symbol><symbol id="insta"><path d="M8.002 3.898A4.095 4.095 0 003.9 8a4.095 4.095 0 004.102 4.102A4.095 4.095 0 0012.103 8a4.095 4.095 0 00-4.101-4.102zm0 6.769A2.672 2.672 0 015.335 8a2.67 2.67 0 012.667-2.667A2.67 2.67 0 0110.668 8c0 1.47-1.2 2.667-2.666 2.667zm5.225-6.937a.954.954 0 01-.956.957.957.957 0 11.957-.957zm2.717.971c-.06-1.282-.354-2.417-1.292-3.352C13.717.413 12.582.12 11.3.056c-1.32-.075-5.28-.075-6.6 0-1.278.06-2.413.354-3.352 1.29C.41 2.28.12 3.415.056 4.697c-.075 1.32-.075 5.28 0 6.6.06 1.283.354 2.418 1.292 3.353.94.936 2.07 1.229 3.352 1.293 1.32.075 5.28.075 6.6 0 1.281-.06 2.416-.354 3.352-1.293.935-.935 1.228-2.07 1.292-3.352.075-1.321.075-5.277 0-6.598zm-1.706 8.015a2.7 2.7 0 01-1.521 1.521c-1.053.418-3.552.322-4.715.322-1.164 0-3.666.092-4.715-.322a2.7 2.7 0 01-1.521-1.52C1.348 11.662 1.445 9.163 1.445 8c0-1.164-.093-3.667.321-4.716a2.7 2.7 0 011.52-1.521c1.054-.418 3.552-.322 4.716-.322 1.163 0 3.666-.092 4.715.322a2.7 2.7 0 011.52 1.52c.418 1.054.322 3.553.322 4.717 0 1.164.096 3.667-.321 4.716z" fill="#fff"/></symbol><symbol id="logo"><path d="M79.992 41v-.32l1.312-.32c.875-.192 1.312-.725 1.312-1.6V20.52h-2.72c-.79 0-1.355.213-1.696.64-.341.405-.704.97-1.088 1.696l-1.152 2.24h-.32l.16-5.216h18.464l.128 5.216h-.32l-1.152-2.24c-.363-.725-.715-1.29-1.056-1.696-.341-.427-.907-.64-1.696-.64h-2.72v18.24c0 .875.437 1.408 1.312 1.6l1.312.32V41h-10.08zm15.774 0v-.32l.672-.224c.427-.15.704-.341.832-.576.129-.256.193-.608.193-1.056V22.088c0-.427-.064-.757-.192-.992-.107-.256-.363-.459-.769-.608l-.736-.288v-.32h9.153c2.517 0 4.448.48 5.792 1.44 1.344.939 2.016 2.25 2.016 3.936 0 .939-.352 1.877-1.056 2.816-.704.939-1.814 1.664-3.328 2.176l4.448 8.832c.192.363.405.661.64.896.256.213.586.405.992.576l.416.16V41h-5.728l-4.736-10.08h-2.176v7.904c0 .405.064.736.192.992s.394.448.8.576l.768.288V41h-8.193zm6.433-10.72h1.536c1.536 0 2.645-.405 3.328-1.216.682-.832 1.024-2.059 1.024-3.68 0-1.643-.32-2.859-.96-3.648-.64-.81-1.718-1.216-3.232-1.216h-1.696v9.76zM115.725 41v-.32l.8-.288c.426-.17.757-.373.992-.608.234-.256.426-.608.576-1.056l6.592-18.912h2.72l6.496 19.04c.17.47.362.832.576 1.088.213.235.544.437.992.608l.384.128V41h-8.128v-.32l.48-.16c.448-.17.714-.405.8-.704.106-.32.096-.693-.032-1.12l-1.504-4.608h-7.104l-1.536 4.512c-.15.47-.203.843-.16 1.12.064.277.32.501.768.672l.704.288V41h-4.416zm4.864-7.552h6.688l-3.232-9.952-3.456 9.952zM136.86 41v-.32l.576-.192c.427-.15.715-.352.864-.608.15-.256.224-.597.224-1.024.022-1.28.032-2.57.032-3.872V25.96c0-1.301-.01-2.592-.032-3.872 0-.427-.064-.768-.192-1.024-.106-.256-.362-.459-.768-.608l-.704-.256v-.32h15.488l.224 5.312h-.32l-1.824-3.36c-.213-.405-.458-.725-.736-.96-.277-.235-.661-.352-1.152-.352h-5.152a334.686 334.686 0 00-.032 4.64v4.704h3.328c.491 0 .854-.107 1.088-.32.235-.213.459-.523.672-.928l.672-1.216h.32V33h-.32l-.704-1.216a4.15 4.15 0 00-.672-.928c-.213-.235-.565-.352-1.056-.352h-3.328v4.288c0 1.344.011 2.667.032 3.968 0 .832.406 1.376 1.216 1.632l.96.288V41h-8.704zm17 0v-.32l.64-.256c.427-.15.704-.352.832-.608.15-.256.224-.597.224-1.024V22.088c0-.427-.064-.768-.192-1.024s-.416-.459-.864-.608l-.64-.256v-.32h8.224v.32l-.64.256c-.426.15-.714.352-.864.608-.128.256-.192.597-.192 1.024v16.704c0 .427.064.768.192 1.024.15.235.438.437.864.608l.64.256V41h-8.224zm20.102.576c-2.069 0-3.947-.416-5.632-1.248-1.664-.853-2.987-2.112-3.968-3.776-.981-1.664-1.472-3.701-1.472-6.112 0-1.835.299-3.445.896-4.832s1.408-2.55 2.432-3.488a10.475 10.475 0 013.584-2.112 13.191 13.191 0 014.32-.704c1.216 0 2.336.139 3.36.416a13.1 13.1 0 012.88 1.152l.128 3.936h-.32l-1.6-2.56a6.796 6.796 0 00-.704-1.088 2.402 2.402 0 00-.96-.768c-.32-.15-.64-.256-.96-.32-.299-.085-.683-.128-1.152-.128-1.237 0-2.368.33-3.392.992-1.003.661-1.813 1.76-2.432 3.296-.597 1.515-.896 3.595-.896 6.24 0 2.624.288 4.704.864 6.24.576 1.515 1.355 2.603 2.336 3.264 1.003.64 2.123.96 3.36.96.683 0 1.227-.043 1.632-.128a7.007 7.007 0 001.216-.448c.405-.17.715-.416.928-.736.213-.341.405-.704.576-1.088l1.408-3.136h.32l-.096 4.576c-.896.47-1.899.853-3.008 1.152-1.109.299-2.325.448-3.648.448zm18.102 0c-1.302 0-2.56-.235-3.776-.704a9.867 9.867 0 01-3.232-2.08c-.939-.939-1.686-2.101-2.24-3.488-.555-1.387-.832-3.008-.832-4.864 0-1.835.277-3.445.832-4.832.554-1.387 1.312-2.539 2.272-3.456a9.625 9.625 0 013.232-2.112 9.92 9.92 0 013.744-.736c1.301 0 2.549.235 3.744.704a8.858 8.858 0 013.232 2.08c.96.917 1.717 2.08 2.272 3.488.554 1.387.832 3.008.832 4.864 0 1.813-.278 3.424-.832 4.832-.555 1.387-1.312 2.55-2.272 3.488a9.864 9.864 0 01-3.232 2.112c-1.195.47-2.443.704-3.744.704zm0-.672c1.173 0 2.122-.31 2.848-.928.725-.64 1.248-1.717 1.568-3.232.341-1.536.512-3.637.512-6.304 0-2.688-.171-4.79-.512-6.304-.32-1.536-.843-2.613-1.568-3.232-.726-.64-1.675-.96-2.848-.96-1.152 0-2.091.32-2.816.96-.726.619-1.259 1.696-1.6 3.232-.32 1.515-.48 3.616-.48 6.304 0 2.667.16 4.768.48 6.304.341 1.515.874 2.592 1.6 3.232.725.619 1.664.928 2.816.928zm14.424.576c-.768 0-1.419-.267-1.952-.8a2.616 2.616 0 01-.8-1.92c0-.747.266-1.397.8-1.952a2.604 2.604 0 011.952-.832c.768 0 1.418.277 1.952.832.533.555.8 1.205.8 1.952a2.62 2.62 0 01-.8 1.92c-.534.533-1.184.8-1.952.8z" fill="#fff"/><path opacity=".4" d="M0 17h16V0L0 17z" fill="#fff"/><path d="M47 17H16v33l31-33z" fill="#fff"/></symbol><symbol id="plus"><path fill="#EE4D47" d="M9 .162h2v20H9z"/><path fill="#EE4D47" d="M20 9.162v2H0v-2z"/></symbol><symbol id="truck" viewBox="0 0 811 395"><path d="M231.558 327.493c0 36.821 21.205 66.571 47.286 66.571h47.287c26.08 0 47.042-29.994 47.042-66.571 0-36.822-21.205-66.572-47.286-66.572h-47.043c-26.324 0-47.286 29.994-47.286 66.572z" fill="#442B2B"/><path d="M602.05 326.761c0 36.821 21.206 66.571 47.286 66.571h47.287c26.081 0 47.043-29.993 47.043-66.571 0-36.822-21.206-66.572-47.287-66.572h-47.043c-26.324 0-47.286 29.75-47.286 66.572z" fill="#402B2B"/><path d="M0 228.489L14.38 196.3h43.144l.487 121.926-57.767.244L0 228.489z" fill="#000"/><path d="M228.389 321.152l190.364-.487-21.937-12.925-144.053.244-24.374 13.168z" fill="#442B2B"/><path d="M48.749 212.638l.244 122.17 154.534-.244 49.236-26.58 144.054-.244 44.361 26.337 314.431-.732a9.26 9.26 0 009.262-9.266l-.243-112.904-715.879 1.463z" fill="#822626"/><path d="M385.604 240.438l246.67-.488-.488-223.612C631.786 7.316 624.474 0 615.212 0L384.873.488l.731 239.95z" fill="#EF5F53"/><path d="M.975 241.413l384.385-.732-.487-239.95-368.055.732C7.8 1.463.488 8.78.488 18.045l.487 223.368z" fill="#F39476"/><path d="M570.851 326.761c0 36.821-20.962 66.571-47.043 66.571h-47.043v-22.434c-17.306 0-31.443-19.752-31.443-44.137s13.894-44.137 31.2-44.137v-22.435h47.042c26.081.244 47.043 29.994 47.287 66.572z" fill="#402B2B"/><path d="M437.766 327.249c0 30.237 17.306 54.622 38.755 54.379 21.45 0 38.512-24.386 38.512-54.623 0-30.238-17.306-54.623-38.756-54.379-21.205 0-38.511 24.385-38.511 54.623z" fill="#4B2A2A"/><path opacity=".32" d="M476.521 363.095c14.137 0 25.349-16.094 25.349-36.09 0-19.996-11.456-35.846-25.593-35.846s-25.349 16.094-25.349 36.09c0 19.995 11.456 35.846 25.593 35.846zm0-57.305c8.287 0 15.112 9.51 15.112 21.215s-6.825 21.459-15.112 21.459c-8.287 0-15.112-9.511-15.112-21.215 0-11.949 6.581-21.459 15.112-21.459z" fill="#E14841"/><path d="M476.521 393.576c26.081 0 47.043-29.994 47.043-66.571 0-36.578-21.206-66.572-47.287-66.572s-47.043 29.994-47.043 66.572c0 36.577 21.45 66.815 47.287 66.571zm-.244-120.95c21.45 0 38.756 24.385 38.756 54.379 0 30.237-17.063 54.623-38.512 54.623-21.45 0-38.756-24.386-38.756-54.379 0-30.238 17.306-54.623 38.512-54.623z" fill="#402B2B"/><path opacity=".32" d="M469.94 327.005c0-5.121 2.925-9.023 6.338-9.023 3.412 0 6.337 4.146 6.581 9.023 0 5.121-2.925 9.022-6.337 9.022-3.657.244-6.582-3.901-6.582-9.022z" fill="#E14841"/><path d="M200.115 327.736c0 36.822-20.963 66.572-47.043 66.572h-47.043v-22.435c-17.306 0-31.443-19.752-31.443-44.137s13.893-44.137 31.199-44.137v-22.434h47.043c26.081 0 47.287 29.75 47.287 66.571z" fill="#000"/><path d="M795.584 144.604c0 .975.731 1.707 1.462 1.951 1.95.487 9.262.487 11.456-.244.975-.244 1.95-.975 1.95-2.195.731-19.508.731-38.528 0-56.573 0-1.22-.975-1.951-1.95-2.195-2.437-.731-10.968-1.22-13.65-.244-.975.244-1.706 1.22-1.706 2.195-.487 18.533.244 37.553 2.438 57.305z" fill="#CD2827"/><path d="M783.64 161.917c.243 0 .487 0 .975-.243l16.574-8.291c3.9-1.951 6.338-5.853 6.338-10.242l-.244-61.207a4.37 4.37 0 00-4.388-4.39h-45.58c-1.219 0-1.95.976-1.95 1.952 0 1.219.975 1.95 1.95 1.95h45.58c.244 0 .244.244.244.244l.244 61.207c0 2.926-1.706 5.365-4.144 6.584l-16.574 8.291c-.975.488-1.463 1.707-.975 2.682.487 1.22 1.218 1.463 1.95 1.463z" fill="#822626"/><path d="M418.753 239.95h54.843c29.006 0 35.831 14.387 53.624 49.745l56.305-.243v-11.218l214.983-.487c.975-17.801 2.925-53.891 2.925-88.031v-3.414c0-9.754-1.706-20.483-4.631-31.212-11.456-41.943-40.462-86.568-52.405-102.906-3.9-5.364-7.313-9.998-10.238-14.143-8.287-10.973-13.893-16.582-24.374-16.582l-260.563.732c-5.363 0-10.238 3.657-11.7 8.778-22.425 82.422-19.012 145.092-18.769 208.981zM638.368 51.209c-.244-1.22.731-2.195 1.95-2.195l79.217-.244c4.631 0 9.262 2.439 12.187 6.584 30.955 42.187 43.386 80.715 48.018 102.906l4.875 23.409c.731 3.414-1.463 6.097-4.875 6.097h-19.256c-3.169 0-6.581-1.464-9.019-3.902l-39.486-37.797c-4.388-4.145-10.238-6.584-15.844-6.584h-47.286l-10.481-88.274z" fill="#CD2827"/><path d="M597.418 155.821c1.706 7.803 3.656 15.85 5.362 24.385 1.219 5.853 6.338 9.998 12.188 10.242 77.023 2.682 140.884 2.926 186.464-.488v-3.414c0-9.754-1.706-20.483-4.631-31.213l-199.383.488z" fill="#822626"/><path opacity=".75" d="M455.072 49.258l79.217-.244c4.631 0 8.775 2.439 10.968 6.584 22.181 42.186 26.812 80.715 26.812 102.905v23.41c0 3.414-2.681 6.097-6.093 6.097H546.72c-3.169 0-6.338-1.464-8.288-3.902l-31.686-37.797c-3.657-4.146-8.775-6.828-14.381-6.584h-47.287l7.556-88.274c0-1.22.975-2.195 2.438-2.195z" fill="#402B2B"/><path d="M418.753 239.95h54.843c29.006 0 35.831 14.387 53.624 49.745l56.305-.243v-11.218l214.983-.487c.975-17.801 2.925-53.891 2.925-88.031-45.58 3.414-109.685 3.414-186.465.488-5.85-.244-10.968-4.389-12.187-10.242-1.706-8.534-3.656-16.825-5.363-24.385-10.481-44.625-21.937-76.57-37.049-111.196-1.218-2.682.731-5.852 3.656-5.852l170.134-.488c-8.287-10.973-13.893-16.582-24.374-16.582l-260.563.732c-5.363 0-10.238 3.657-11.7 8.778-22.425 82.422-19.012 145.092-18.769 208.981zm26.081-100.223l7.556-88.274c0-1.22 1.219-2.195 2.438-2.195l79.217-.244c4.631 0 8.775 2.439 10.968 6.584 22.181 42.186 26.812 80.715 26.812 102.905v23.41c0 3.414-2.681 6.096-6.093 6.096h-19.256c-3.169 0-6.338-1.463-8.288-3.901l-31.686-37.797c-3.657-4.146-8.775-6.828-14.381-6.584h-47.287z" fill="url(#paint0_linear)"/><path d="M428.26 233.61c0 3.657 2.925 6.34 6.581 6.34h38.755c29.006 0 35.831 14.387 53.624 49.745l56.305-.243v-11.218l-.243-98.759c0-49.014-8.775-79.983-31.931-128.998-3.412-7.315-10.968-11.948-19.012-11.948l-83.848.243c-1.95 0-3.413 1.22-3.9 2.927-16.575 62.913-16.575 165.331-16.331 191.911zm16.575-93.883l7.556-88.274c0-1.22 1.218-2.195 2.437-2.195l79.217-.244c4.631 0 8.775 2.439 10.969 6.584 22.18 42.187 26.812 80.715 26.812 102.905v23.41c0 3.414-2.682 6.096-6.094 6.096h-19.256c-3.169 0-6.337-1.463-8.287-3.901l-31.687-37.797c-3.656-4.146-8.775-6.828-14.381-6.584h-47.286z" fill="url(#paint1_linear)"/><path d="M455.559 52.184l78.73-.244c3.412 0 6.581 1.951 8.287 4.878 22.912 43.649 26.568 82.421 26.568 101.442v23.409c0 1.707-1.462 3.17-3.168 3.17H546.72c-2.438 0-4.631-.975-6.094-2.682l-31.687-37.797c-4.143-4.877-10.237-7.803-16.818-7.803h-43.874l7.312-84.373zm-.487-2.926c-1.219 0-2.438.975-2.438 2.195l-7.556 88.274h47.287c5.606 0 10.724 2.438 14.381 6.584l31.686 37.797c1.95 2.438 5.119 3.902 8.288 3.902h19.256c3.412 0 6.093-2.683 6.093-6.097v-23.41c0-22.19-4.631-60.718-26.812-102.905-2.193-4.145-6.337-6.584-10.968-6.584l-79.217.244z" fill="#822626"/><path opacity=".4" d="M583.281 231.659v46.576l85.067-.244c-.975-12.193-3.168-23.898-6.825-34.871-1.462-4.389-5.118-7.56-9.749-8.291-18.769-2.195-42.656-3.17-68.493-3.17zm172.084 46.332h42.168c.731-10.242 1.462-26.824 2.194-45.601a301.74 301.74 0 00-28.275 2.683c-4.631.731-8.287 3.901-9.749 8.291-3.413 10.729-5.363 22.434-6.338 34.627z" fill="#CD2827"/><path d="M583.525 325.054l197.19-.488c13.406 0 24.374-10.973 24.374-24.385v-4.145c0-3.902-3.168-6.828-6.825-6.828l-214.495.487-.244 35.359z" fill="#EE4D47"/><path d="M547.207 325.054h36.318v-35.358h-55.818l6.094 24.629c1.462 6.34 7.068 10.729 13.406 10.729zm-86.773-128.997c8.287.244 24.374 1.951 24.374 7.803s-14.137 7.803-25.593 7.803-12.675-6.34-13.65-9.022c-.731-2.683-1.462-6.828 14.869-6.584z" fill="#CD2827"/><path d="M461.165 202.397c-3.9 0-8.043-1.22-9.993-3.17 1.462-.732 3.656-1.463 7.069-1.463 6.337 0 16.574.731 21.937 3.17-.732.487-2.682 1.463-5.85 1.463h-13.163zm16.331 4.633c1.463 0 2.194.244 2.438.488-4.388 1.95-12.431 2.682-16.331 2.682-5.606 0-9.506 0-10.725-1.219.975-.732 3.169-1.951 5.362-1.951 2.925.244 17.306 0 19.256 0z" fill="#9B1616"/><path d="M583.525 278.478v11.217l214.252-.487s.244-4.146.731-11.217l-214.983.487z" fill="#822626"/><path d="M675.904 229.22v46.576l71.905-.244v-46.576c0-5.608-5.119-9.997-11.456-9.997h-49.236c-6.094.243-11.213 4.877-11.213 10.241z" fill="#822626" opacity=".2"/><path d="M771.939 274.089h15.112c3.9 0 7.313-3.17 7.313-7.316v-7.559c0-3.902-3.169-7.315-7.313-7.315h-15.112c-3.9 0-7.312 3.17-7.312 7.315v7.559c0 4.146 3.412 7.316 7.312 7.316zm-143.078.488h15.112c3.9 0 7.313-3.17 7.313-7.316v-7.559c0-3.902-3.169-7.316-7.313-7.316h-15.112c-3.9 0-7.312 3.17-7.312 7.316v7.559c0 3.902 3.169 7.316 7.312 7.316z" fill="#fff"/><path d="M531.363 145.092c0 .975.731 1.707 1.462 1.95 9.507.976 19.5.976 29.737-.243 1.219-.244 1.95-.976 1.95-2.195.732-19.508.732-38.529 0-56.574 0-1.219-.975-1.95-1.95-2.194-10.481-1.22-20.962-1.22-31.93 0-.975.244-1.706 1.219-1.706 2.194-.732 18.289.243 37.31 2.437 57.062z" fill="#CD2827"/><path d="M569.143 162.405c.731 0 1.462-.488 1.706-1.219.488-.976 0-2.195-.975-2.682l-16.574-8.048c-2.438-1.219-4.144-3.901-4.144-6.584l-.244-61.206c0-.244.244-.244.244-.244h10.237c1.219 0 1.95-.976 1.95-1.951 0-1.22-.975-1.95-1.95-1.95h-10.237a4.37 4.37 0 00-4.387 4.388l.243 61.207c0 4.39 2.438 8.291 6.338 10.242l16.574 8.047h1.219z" fill="#822626"/><path d="M680.93 327.942l68.979-.15-.045-20.727-68.979.15.045 20.727z" fill="#fff"/><path opacity=".8" d="M559.9 45.118c15.112 34.627 26.325 66.572 37.049 111.197l199.384-.488c-11.456-41.943-40.462-86.567-52.405-102.905-3.9-5.365-7.313-9.998-10.238-14.144l-170.134.488c-2.925.244-4.875 3.17-3.656 5.852z" fill="#8E6362"/><path d="M71.174 327.98c0 30.238 17.306 54.623 38.755 54.379 21.45 0 38.512-24.385 38.512-54.623 0-30.237-17.306-54.622-38.755-54.378-21.45 0-38.512 24.385-38.512 54.622z" fill="#000"/><path d="M109.929 363.826c14.137 0 25.35-16.094 25.35-36.09 0-19.752-11.456-35.846-25.594-35.846-14.137 0-25.35 16.094-25.35 36.09 0 19.996 11.457 35.846 25.594 35.846zm-.244-57.305c8.288 0 15.113 9.51 15.113 21.215s-6.825 21.459-15.113 21.459c-8.287 0-15.112-9.51-15.112-21.215 0-11.948 6.825-21.459 15.112-21.459z" fill="#625C5C"/><path d="M109.929 394.552c26.081 0 47.043-29.994 47.043-66.572 0-36.821-21.206-66.571-47.287-66.571-26.08 0-47.042 29.994-47.042 66.571 0 36.822 21.205 66.572 47.286 66.572zm-.244-121.194c21.45 0 38.756 24.385 38.756 54.378 0 29.994-17.062 54.623-38.512 54.623s-38.755-24.385-38.755-54.379c0-29.993 17.062-54.622 38.511-54.622z" fill="#424242"/><path d="M103.348 327.98c0-5.121 2.925-9.022 6.337-9.022 3.656 0 6.337 4.145 6.581 9.022 0 5.121-2.925 9.023-6.337 9.023-3.656 0-6.581-4.146-6.581-9.023z" fill="#8B8282"/></symbol><symbol id="twitter"><path fill-rule="evenodd" clip-rule="evenodd" d="M8.91 4.66l-.04-.652c-.119-1.69.924-3.232 2.574-3.83.607-.213 1.636-.24 2.31-.053.264.08.765.345 1.122.585l.646.438.713-.226c.396-.12.924-.319 1.162-.452.224-.12.422-.186.422-.146 0 .226-.488.997-.897 1.423-.555.598-.396.651.726.252.673-.226.686-.226.554.027-.08.133-.489.599-.924 1.024-.74.732-.779.811-.779 1.423 0 .944-.449 2.912-.897 3.99-.832 2.02-2.614 4.109-4.396 5.16-2.508 1.475-5.847 1.848-8.659.983C1.61 14.314 0 13.57 0 13.436c0-.04.488-.093 1.082-.106a7.443 7.443 0 003.538-.985l.713-.425-.819-.28c-1.161-.398-2.204-1.316-2.468-2.18-.08-.28-.053-.293.686-.293l.766-.013-.647-.306c-.766-.386-1.465-1.037-1.808-1.702C.792 6.667.475 5.457.568 5.364c.026-.04.303.04.62.146.91.333 1.03.253.502-.306C.7 4.194.396 2.691.87 1.268L1.096.63l.87.864C3.75 3.236 5.848 4.274 8.25 4.58l.66.08z" fill="#fff"/></symbol></svg>